<svg xmlns="http://www.w3.org/2000/svg" width="75" height="13" viewBox="0 0 75 13">
    <g fill="#000" fill-rule="nonzero">
        <path d="M62.097 13v-1.85h-5.06V.49h-1.88v12.488l6.94.022zm-.021-8.986h-1.86v5.864h1.86V4.014zM60.389 2.23c.195.223.454.312.757.312.302 0 .562-.111.757-.312.194-.223.302-.468.302-.78 0-.313-.108-.58-.302-.781a.98.98 0 0 0-.757-.312c-.303 0-.54.111-.757.312a1.133 1.133 0 0 0-.303.78.94.94 0 0 0 .303.78zm7.892 3.412V4.014h-2.14V2.676c0-.29.064-.535.173-.714.108-.2.346-.29.692-.29h1.275V0h-1.535c-.346 0-.649.045-.951.156-.303.09-.54.245-.757.446-.216.2-.39.468-.52.78-.129.313-.194.67-.194 1.093v1.561h-1.038v1.606h1.038V13h1.838V5.642h2.12zM74.844 9.059v-1.75c0-.53-.123-1.018-.286-1.438a2.828 2.828 0 0 0-.696-1.063 2.812 2.812 0 0 0-1.022-.664 3.341 3.341 0 0 0-1.267-.244c-.47 0-.92.089-1.309.244a2.944 2.944 0 0 0-1.042.686c-.307.31-.532.664-.695 1.107a4.101 4.101 0 0 0-.246 1.461v2.347c0 .554.102 1.04.266 1.44.184.398.43.752.756 1.018.328.266.696.465 1.104.598.41.133.86.199 1.309.199.51 0 1.002-.089 1.513-.244.51-.155.981-.487 1.43-.974l-.49-.664c-.163-.2-.327-.42-.511-.664-.348.354-.695.575-1.043.664-.347.089-.654.155-.9.155-.224 0-.449-.022-.653-.089a1.729 1.729 0 0 1-.552-.31 1.436 1.436 0 0 1-.389-.53c-.102-.222-.143-.488-.143-.798v-.443h4.866V9.06zm-1.656-1.55h-3.19v-.11c0-.599.164-1.02.47-1.33.328-.287.696-.442 1.125-.442.43 0 .797.133 1.125.42.306.289.47.731.47 1.351v.111z"/>
        <g>
            <path d="M31.026 3.704a4.513 4.513 0 0 0-2.117.554c0-1.934.03-3.613.074-4.258l-3.894.765v.36l.382.045c.543.075.75.404.823 1.14.117 1.424.102 9.026 0 10.24 1.088.263 2.202.404 3.32.42 3.087 0 4.953-1.95 4.953-5.038-.014-2.46-1.528-4.228-3.541-4.228zm-1.352 8.651a4.237 4.237 0 0 1-.662-.06c-.059-.854-.103-4.378-.088-7.452.292-.106.601-.157.911-.15 1.279 0 1.999 1.515 1.999 3.404-.015 2.429-.897 4.258-2.16 4.258zM10.452 3.794l-.603.164C9.305 2.16 8.468 1.14 6.895 1.14H4.867c-.088 1.154-.132 3.073-.117 5.068l1.366-.045c.912-.03 1.279-.72 1.5-1.725h.514v4.229h-.515c-.22-1.02-.602-1.71-1.513-1.74L4.75 6.882c.014 1.515.059 2.804.117 3.569.088 1.125.397 1.62 1.176 1.74l.69.074v.51H.15v-.51l.544-.075c.779-.12 1.087-.614 1.175-1.739.147-1.86.177-5.713 0-7.872C1.781 1.469 1.473.975.694.855L.15.78V.285h10.243l.059 3.509zm3.277-.195c2.91 0 4.35 2.009 4.35 4.678s-1.632 4.708-4.541 4.708c-2.91 0-4.365-2.01-4.365-4.663 0-2.654 1.631-4.723 4.556-4.723zm-.147.57c-1.293 0-1.646 1.769-1.646 4.123s.573 4.123 1.763 4.123 1.646-1.77 1.646-4.123c0-2.354-.588-4.109-1.778-4.109l.015-.015zm21.69 4.213c0-2.46 1.514-4.768 4.527-4.768 2.44 0 3.6 1.844 3.615 4.258h-5.452c-.059 2.19 1.029 3.809 3.115 3.809.912 0 1.411-.225 1.97-.66l.25.315C42.693 12.19 41.43 13 39.754 13c-2.63-.015-4.482-1.904-4.482-4.618zm2.72-1.125l2.733-.06c.014-1.23-.177-2.999-1.161-2.999-.985 0-1.558 1.665-1.587 3.044l.014.015zm12.417-.884l-.44.12c-.471-1.575-1.191-2.235-2.25-2.235-.705 0-1.204.54-1.204 1.32s.573 1.184 2.219 1.83c1.646.644 2.116 1.289 2.116 2.548 0 1.874-1.41 3.029-3.733 3.029a8.992 8.992 0 0 1-3.071-.555l-.074-2.594.441-.12c.632 1.815 1.47 2.474 2.572 2.474s1.455-.674 1.455-1.394c0-.72-.397-1.125-1.881-1.665s-2.38-1.124-2.38-2.698c0-1.575 1.322-2.834 3.511-2.834 1.014 0 1.984.18 2.631.48l.088 2.294zm-25.688-.075c-1.176-.81-2.454-.45-2.704-.015-.085 1.598-.075 3.2.03 4.798.058.734.279 1.064.822 1.14l.706.044v.51h-5.423v-.51l.382-.045c.544-.075.75-.405.823-1.14a39.21 39.21 0 0 0 0-5.172c-.059-.735-.279-1.065-.823-1.14l-.382-.045v-.36l3.895-.764-.045 2.069c.912-2.13 2.704-2.414 3.674-1.814l-.955 2.444z"/>
        </g>
    </g>
</svg>
