<svg xmlns="http://www.w3.org/2000/svg" width="116" height="14" viewBox="0 0 116 14">
    <g fill="#000" fill-rule="evenodd">
        <path d="M64.35 13h-2.66l-.77-1.946h-3.836L56.356 13h-2.604l4.158-9.912h2.324L64.35 13zm-4.088-3.864L59.03 5.734l-1.26 3.402h2.492zm13.488 3.262c-.966.504-2.296.854-3.822.854-3.164 0-5.446-2.1-5.446-5.222 0-3.178 2.352-5.208 5.376-5.208 1.554 0 2.996.518 3.822 1.316L72.168 5.86c-.462-.532-1.26-.924-2.226-.924-1.68 0-2.912 1.316-2.912 3.094 0 1.82 1.078 3.122 3.024 3.122.56 0 1.078-.084 1.498-.266V9.08h-1.89V7.148h4.088v5.25zm8.896.602H75.73V3.088h6.664v2.03H78.04V6.98h4.116v1.918H78.04v2.058h4.606V13zm10.618 0h-2.716l-3.99-6.482h-.042L86.572 13h-2.324V3.088h2.73l3.976 6.468h.042l-.056-6.468h2.324V13zm11.318-4.984c0 3.486-2.828 4.984-5.558 4.984h-3.696V3.088h3.584c2.814 0 5.67 1.176 5.67 4.928zm-2.492 0c0-2.226-1.582-2.884-3.234-2.884h-1.19v5.796H98.8c1.708 0 3.29-.7 3.29-2.912zM115.228 13h-2.66l-.77-1.946h-3.836L107.234 13h-2.604l4.158-9.912h2.324L115.228 13zm-4.088-3.864l-1.232-3.402-1.26 3.402h2.492z"/>
        <path fill-rule="nonzero" d="M31.526 3.704a4.513 4.513 0 0 0-2.117.554c0-1.934.03-3.613.074-4.258l-3.894.765v.36l.382.045c.543.075.75.404.823 1.14.117 1.424.102 9.026 0 10.24 1.088.263 2.202.404 3.32.42 3.087 0 4.953-1.95 4.953-5.038-.014-2.46-1.528-4.228-3.541-4.228zm-1.352 8.651a4.237 4.237 0 0 1-.662-.06c-.059-.854-.103-4.378-.088-7.452.292-.106.601-.157.911-.15 1.279 0 1.999 1.515 1.999 3.404-.015 2.429-.897 4.258-2.16 4.258zM10.952 3.794l-.603.164C9.805 2.16 8.968 1.14 7.395 1.14H5.367c-.088 1.154-.132 3.073-.117 5.068l1.366-.045c.912-.03 1.279-.72 1.5-1.725h.514v4.229h-.515c-.22-1.02-.602-1.71-1.513-1.74L5.25 6.882c.014 1.515.059 2.804.117 3.569.088 1.125.397 1.62 1.176 1.74l.69.074v.51H.65v-.51l.544-.075c.779-.12 1.087-.614 1.175-1.739.147-1.86.177-5.713 0-7.872C2.281 1.469 1.973.975 1.194.855L.65.78V.285h10.243l.059 3.509zm3.277-.195c2.91 0 4.35 2.009 4.35 4.678s-1.632 4.708-4.541 4.708c-2.91 0-4.365-2.01-4.365-4.663 0-2.654 1.631-4.723 4.556-4.723zm-.147.57c-1.293 0-1.646 1.769-1.646 4.123s.573 4.123 1.763 4.123 1.646-1.77 1.646-4.123c0-2.354-.588-4.109-1.778-4.109l.015-.015zm21.69 4.213c0-2.46 1.514-4.768 4.527-4.768 2.44 0 3.6 1.844 3.615 4.258h-5.452c-.059 2.19 1.029 3.809 3.115 3.809.912 0 1.411-.225 1.97-.66l.25.315C43.193 12.19 41.93 13 40.254 13c-2.63-.015-4.482-1.904-4.482-4.618zm2.72-1.125l2.733-.06c.014-1.23-.177-2.999-1.161-2.999-.985 0-1.558 1.665-1.587 3.044l.014.015zm12.417-.884l-.44.12c-.471-1.575-1.191-2.235-2.25-2.235-.705 0-1.204.54-1.204 1.32s.573 1.184 2.219 1.83c1.646.644 2.116 1.289 2.116 2.548 0 1.874-1.41 3.029-3.733 3.029a8.992 8.992 0 0 1-3.071-.555l-.074-2.594.441-.12c.632 1.815 1.47 2.474 2.572 2.474s1.455-.674 1.455-1.394c0-.72-.397-1.125-1.881-1.665s-2.38-1.124-2.38-2.698c0-1.575 1.322-2.834 3.511-2.834 1.014 0 1.984.18 2.631.48l.088 2.294zm-25.688-.075c-1.176-.81-2.454-.45-2.704-.015-.085 1.598-.075 3.2.03 4.798.058.734.279 1.064.822 1.14l.706.044v.51h-5.423v-.51l.382-.045c.544-.075.75-.405.823-1.14a39.21 39.21 0 0 0 0-5.172c-.059-.735-.279-1.065-.823-1.14l-.382-.045v-.36l3.895-.764-.045 2.069c.912-2.13 2.704-2.414 3.674-1.814l-.955 2.444z"/>
    </g>
</svg>
