<svg xmlns="http://www.w3.org/2000/svg" width="115" height="14" viewBox="0 0 115 14">
    <g fill="none" fill-rule="evenodd">
        <path fill="#000" fill-rule="nonzero" d="M30.42 3.704a4.36 4.36 0 0 0-2.076.554c0-1.934.029-3.613.072-4.258l-3.82.765v.36l.375.045c.533.075.735.404.807 1.14.116 1.424.101 9.026 0 10.24a14.48 14.48 0 0 0 3.258.42c3.026 0 4.857-1.95 4.857-5.038-.015-2.46-1.5-4.228-3.474-4.228zm-1.327 8.651a4.078 4.078 0 0 1-.648-.06c-.058-.854-.101-4.378-.087-7.452.287-.106.59-.157.894-.15 1.254 0 1.96 1.515 1.96 3.404-.014 2.429-.88 4.258-2.119 4.258zM10.241 3.794l-.59.164C9.116 2.16 8.294 1.14 6.752 1.14H4.764c-.086 1.154-.13 3.073-.115 5.068l1.34-.045c.894-.03 1.254-.72 1.47-1.725h.505v4.229h-.505c-.216-1.02-.59-1.71-1.484-1.74l-1.326-.045c.014 1.515.057 2.804.115 3.569.087 1.125.39 1.62 1.153 1.74l.678.074v.51H.138v-.51l.533-.075c.764-.12 1.066-.614 1.153-1.739.144-1.86.173-5.713 0-7.872C1.737 1.469 1.434.975.67.855L.137.78V.285h10.046l.058 3.509zm3.214-.195c2.854 0 4.266 2.009 4.266 4.678s-1.6 4.708-4.453 4.708c-2.854 0-4.28-2.01-4.28-4.663 0-2.654 1.599-4.723 4.467-4.723zm-.144.57c-1.268 0-1.614 1.769-1.614 4.123s.562 4.123 1.73 4.123c1.167 0 1.614-1.77 1.614-4.123 0-2.354-.577-4.109-1.744-4.109l.014-.015zm21.274 4.213c0-2.46 1.484-4.768 4.439-4.768 2.392 0 3.531 1.844 3.545 4.258h-5.347c-.057 2.19 1.01 3.809 3.056 3.809.893 0 1.383-.225 1.931-.66l.245.315c-.59.854-1.83 1.664-3.473 1.664-2.58-.015-4.396-1.904-4.396-4.618zm2.666-1.125l2.68-.06c.015-1.23-.172-2.999-1.138-2.999-.965 0-1.527 1.665-1.556 3.044l.014.015zm12.18-.884l-.433.12c-.462-1.575-1.168-2.235-2.205-2.235-.692 0-1.182.54-1.182 1.32s.562 1.184 2.176 1.83c1.614.644 2.075 1.289 2.075 2.548 0 1.874-1.383 3.029-3.66 3.029a8.669 8.669 0 0 1-3.013-.555l-.072-2.594.433-.12c.62 1.815 1.44 2.474 2.522 2.474 1.08 0 1.427-.674 1.427-1.394 0-.72-.39-1.125-1.845-1.665-1.456-.54-2.335-1.124-2.335-2.698 0-1.575 1.297-2.834 3.445-2.834.994 0 1.945.18 2.58.48l.086 2.294zm-25.195-.075c-1.153-.81-2.407-.45-2.652-.015-.083 1.598-.074 3.2.029 4.798.058.734.274 1.064.807 1.14l.692.044v.51h-5.319v-.51l.375-.045c.534-.075.735-.405.807-1.14.112-1.722.112-3.45 0-5.172-.057-.735-.274-1.065-.807-1.14l-.375-.045v-.36l3.82-.764-.043 2.069c.893-2.13 2.652-2.414 3.603-1.814l-.937 2.444z"/>
        <path d="M50.5 1.084H69V13.61H50.5z"/>
        <path fill="#000" stroke="#000" stroke-width=".2" d="M68.999 1.084h-4.14s1.891.542 1.462 1.907c-.25.795-2.49 7.069-2.49 7.069l-3.605-8.74-2.607 8.773s-3.144-7.544-3.28-7.862c-.455-1.055 1.201-1.147 1.201-1.147H50.5s1.14.219 1.842 1.658L57 13.61l2.554-8.544c-.04 0 3.54 8.526 3.54 8.526s3.223-9.354 3.655-10.6c.537-1.551 2.25-1.908 2.25-1.908M91.246 6.365c-.131-2.032-1.708-2.736-3.262-2.657-1.167.059-2.11.612-2.578 1.234-.704-.917-1.665-1.253-2.694-1.253-1.186 0-2.366.332-3.124 1.377L79.587 3.6l-1.113.825c-1.247.687-2.374.286-2.374.286l1.915.945c.04 5.366.04 5.364 0 6.131-.04.766-1.52.913-1.52.913h4.938s-1.39-.115-1.39-.887.037-6.815.037-6.815c.444-.627 1.056-.824 1.66-.824 1.315 0 1.903 1.249 1.913 1.81 0 0 .009 5.101 0 5.829-.01.727-1.395.887-1.395.887h4.764s-1.405-.223-1.405-.887l-.01-6.63c.14-.166.824-1.069 1.805-.996 1.46.108 1.866 1.433 1.814 1.796 0 0 .019 5.121 0 5.83-.017.71-1.36.887-1.36.887h4.874s-1.494-.097-1.494-.887V6.365z"/>
        <path d="M103.061 3.672h11.35v8.664h-11.35z"/>
        <path fill="#000" stroke="#000" stroke-width=".2" d="M112.905 6.314c-.085-1.658-1.43-2.572-3.171-2.537-1.157.02-2.336.303-3.086 1.297v.109l-.005-1.511-1.06.777c-1.09.628-2.522.294-2.522.294l.79.327 1.281.575s.047 5.027 0 5.859c-.05.832-1.463.832-1.463.832h4.814s-1.42-.01-1.42-.844v-6.46c.66-.675 1.365-.815 1.93-.8 1.17.028 2.007 1.001 1.986 1.678 0 0-.01 4.937-.002 5.582.008.647-1.38.844-1.38.844h4.815c-.069-.036-1.507-.263-1.507-.862v-5.16zM74.44 4.536c-.654-.533-1.813-1.007-2.929-.927 0 0-2.357-.088-3.474 1.65.592-.68 2.67-1.722 4.438-.933C74.16 5.272 74.2 7.22 74.2 8.26c0 1.832-.546 4.058-2.535 4.058-2.109 0-2.686-2.212-2.686-4.122 0-.483-.144-2.476 1.068-3.355-.959.098-2.764 1.431-2.896 3.404-.164 2.45 1.532 4.456 4.455 4.456 2.784 0 4.494-2.046 4.494-4.495 0-1.008-.174-1.743-.664-2.528-.384-.651-.782-.965-.996-1.141z"/>
        <path d="M94.02 2.3h10.24v10.4H94.02z"/>
        <path fill="#000" stroke="#000" stroke-linecap="round" stroke-width=".2" d="M102.32 12.447s-1.16.027-1.16-.871V6.622c0-1.296-.942-3.022-3.94-3.022-2.836 0-3.757 1.48-3.757 2.232 0 .494.37.876.968.908.841.045 1.123-.68.913-1.15-.52-1.17.77-1.846 1.574-1.827 1.711.045 2.215 1.416 2.215 2.482v.531c-.03.429-.885.65-1.322.63-2.578-.127-5.223.53-5.064 3.02.089 1.42 1.27 2.188 2.698 2.238 1.768.063 2.802-.966 3.162-2.45l-.056.006c-.288.95-1.212 1.652-1.986 1.576-1.596-.158-1.876-1.399-1.845-2.077.081-1.783 1.726-2.205 3.404-2.038.273.028 1.038.13 1.01.273v2.936s.004.257.043.528c.169.81.837 1.07 1.64 1.227.814.157 1.84-.06 2.163-.178l-.66-.02z"/>
    </g>
</svg>
