<svg width="152" height="44" viewBox="0 0 152 44" fill="none" xmlns="http://www.w3.org/2000/svg">
<g clip-path="url(#clip0)">
<path fill-rule="evenodd" clip-rule="evenodd" d="M55.1381 15.6248V5.50338H58.1185C61.8788 5.50338 63.5752 7.69586 63.5752 10.4007C63.5752 12.8726 62.0622 15.6243 58.1185 15.6243H55.1381V15.6248ZM48.627 0.373047V33.0217H55.1381V20.7551H59.3113C67.5193 20.7551 70.4537 14.8785 70.4537 10.5873C70.4537 8.53498 69.7661 0.373047 58.119 0.373047H48.627Z" fill="#00984A"/>
<path fill-rule="evenodd" clip-rule="evenodd" d="M92.1877 0.373047V6.15639H79.5323V13.5261H91.0416V18.8899H79.5323V27.2384H92.1877V33.0217H73.0211V0.373047H92.1877Z" fill="#00984A"/>
<path fill-rule="evenodd" clip-rule="evenodd" d="M119.058 31.9957C116.216 32.9754 113.326 33.3954 110.759 33.3954C102.78 33.3954 94.0681 28.7779 94.0681 16.8845C94.0677 5.64364 101.863 0 111.951 0C114.473 0 116.628 0.326737 119.058 1.11945L118.783 6.71621C116.903 5.96992 114.839 5.50348 112.409 5.50348C105.21 5.50348 100.946 10.121 100.946 16.7908C100.946 24.6728 106.173 27.8915 111.95 27.8915C114.793 27.8915 117.04 27.1916 118.645 26.4458L119.058 31.9957Z" fill="#00984A"/>
<path fill-rule="evenodd" clip-rule="evenodd" d="M136.272 4.66436C138.702 4.66436 145.122 5.64364 145.122 16.6979C145.122 27.7518 138.703 28.7311 136.272 28.7311C133.841 28.7311 127.422 27.7518 127.422 16.6979C127.422 5.64364 133.842 4.66436 136.272 4.66436ZM136.272 0C128.339 0 120.544 4.85094 120.544 16.6979C120.544 28.5445 128.339 33.3954 136.272 33.3954C144.205 33.3954 152 28.5445 152 16.6979C152 4.85094 144.205 0 136.272 0Z" fill="#00984A"/>
<path fill-rule="evenodd" clip-rule="evenodd" d="M52.3096 37.7869V38.8873H49.8105V44H48.5786V37.7869H52.3096Z" fill="#00984A"/>
<path fill-rule="evenodd" clip-rule="evenodd" d="M62.8433 41.5768L63.6852 39.0377H63.7025L64.5959 41.5768H62.8433ZM63.0427 37.7869L60.6217 44.0004H61.9408L62.4528 42.6067H64.9605L65.4724 44.0004H66.8605L64.4481 37.7869H63.0427Z" fill="#00984A"/>
<path fill-rule="evenodd" clip-rule="evenodd" d="M76.926 40.689V38.7629H77.4895C78.2013 38.7629 78.5226 39.1801 78.5226 39.6953C78.5226 40.1659 78.236 40.6894 77.4895 40.6894H76.926V40.689ZM75.6936 37.7869V44.0004H76.926V41.6664H77.7149C79.2681 41.6664 79.8239 40.5479 79.8239 39.731C79.8239 39.3403 79.6934 37.7873 77.4895 37.7873H75.6936V37.7869Z" fill="#00984A"/>
<path fill-rule="evenodd" clip-rule="evenodd" d="M90.6182 41.5768L91.4595 39.0377H91.4769L92.3707 41.5768H90.6182ZM90.8176 37.7869L88.3965 44.0004H89.7152L90.2271 42.6067H92.7349L93.2468 44.0004H94.6353L92.2229 37.7869H90.8176Z" fill="#00984A"/>
<path fill-rule="evenodd" clip-rule="evenodd" d="M104.7 37.7869V40.2898H107.164V37.7869H108.396V44H107.164V41.3104H104.7V44H103.468V37.7869H104.7Z" fill="#00984A"/>
<path fill-rule="evenodd" clip-rule="evenodd" d="M121.967 37.7869V38.8873H120.214V44H118.983V38.8873H117.23V37.7869H121.967Z" fill="#00984A"/>
<path fill-rule="evenodd" clip-rule="evenodd" d="M132.032 37.7869V40.9818L132.007 42.4911H132.032L132.466 41.5856L134.592 37.7869H136.067V44H134.835V40.7957L134.861 39.2952H134.835L134.418 40.2365L132.275 44H130.8V37.7869H132.032Z" fill="#00984A"/>
<path fill-rule="evenodd" clip-rule="evenodd" d="M148.467 40.7159H147.773C147.616 40.7159 146.627 40.7066 146.627 39.7394C146.627 39.402 146.757 38.7629 147.764 38.7629H148.467V40.7159ZM149.698 37.7869H147.729C147.304 37.7869 145.325 37.76 145.325 39.7041C145.325 40.8579 146.045 41.2933 146.523 41.4441L145.074 44.0005H146.548L147.729 41.6924H148.466V44.0005H149.698V37.7869H149.698Z" fill="#00984A"/>
<path d="M23.6719 22.1071V6.32904C20.8329 6.97092 18.4817 8.06576 16.5858 9.58435C14.1707 11.5188 12.4455 14.181 11.3464 17.5003L6.97882 16.0133C8.37003 11.8112 10.5939 8.41014 13.7345 5.89417C16.8473 3.40048 20.8133 1.81506 25.7115 1.22378L28.2927 0.912354V22.1071H23.6719Z" fill="#00984A"/>
<path d="M20.65 19.4506H5.32527C5.95631 22.3388 7.03268 24.7299 8.52609 26.6583C10.4283 29.1149 13.0451 30.8697 16.3089 31.9877L14.847 36.4303C10.7153 35.0147 7.37216 32.7526 4.89819 29.5581C2.44613 26.3924 0.887469 22.3578 0.306166 17.376L0 14.7505H20.65V19.4506Z" fill="#00984A"/>
<path d="M18.2257 22.5459V38.1133C21.0647 37.4714 23.4159 36.3756 25.3113 34.857C27.7264 32.9221 29.4516 30.2604 30.5508 26.9406L34.9184 28.4276C33.5271 32.6297 31.3037 36.0308 28.1626 38.5467C25.0494 41.0404 21.0834 42.6263 16.1857 43.2171L13.6045 43.529V22.5459H18.2257Z" fill="#00984A"/>
<path d="M21.3955 24.9902H36.5728C35.9422 22.1029 34.8645 19.7109 33.3716 17.7829C31.4693 15.3264 28.8525 13.5716 25.5887 12.4535L27.0507 8.01099C31.1819 9.42654 34.5259 11.6882 36.9995 14.8831C39.4511 18.0493 41.0102 22.0834 41.591 27.0657L41.8972 29.6907H21.3955V24.9902Z" fill="#00984A"/>
</g>
<defs>
<clipPath id="clip0">
<rect width="152" height="44" fill="white"/>
</clipPath>
</defs>
</svg>