<svg width="92" height="53" viewBox="0 0 92 53" fill="none" xmlns="http://www.w3.org/2000/svg">
<path d="M69.1978 33.2497L46 52.9668L23.2898 34.7984C20.8072 32.8124 18.803 30.2934 17.4257 27.4279C16.0484 24.5624 15.3333 21.4238 15.3334 18.2445V17.0976C15.3334 12.7841 17.0469 8.64724 20.097 5.59713C23.1471 2.54703 27.2839 0.833496 31.5974 0.833496C33.7333 0.833026 35.8483 1.25354 37.8216 2.07099C39.7948 2.88844 41.5876 4.0868 43.0974 5.59756L46 8.50016L48.9026 5.59756C50.4125 4.0868 52.2052 2.88844 54.1785 2.07099C56.1518 1.25354 58.2668 0.833026 60.4026 0.833496C64.7161 0.833496 68.853 2.54703 71.9031 5.59713C74.9532 8.64724 76.6667 12.7841 76.6667 17.0976C76.6667 20.1703 75.9987 23.2063 74.7091 25.9952C73.4195 28.7842 71.539 31.2595 69.1978 33.2497Z" fill="#E37B70"/>
<path d="M70.6146 4.44757C59.3691 21.4262 41.0933 30.7856 24.7112 35.9361L46 52.9668L69.1978 33.2497C71.5389 31.2595 73.4194 28.7842 74.709 25.9953C75.9987 23.2063 76.6666 20.1703 76.6666 17.0976C76.6685 14.6706 76.1257 12.2741 75.0782 10.0848C74.0308 7.89545 72.5054 5.96906 70.6146 4.44757Z" fill="#DE4F41"/>
<path d="M46 34.5669C45.7314 34.5663 45.4676 34.4952 45.2351 34.3607C45.0026 34.2261 44.8095 34.0328 44.6752 33.8002L35.2483 17.6389L31.9807 23.0837C31.8452 23.3117 31.6529 23.5006 31.4226 23.632C31.1923 23.7634 30.9318 23.8328 30.6667 23.8335H0V20.7669H29.7988L33.9526 13.8439C34.0889 13.6171 34.2815 13.4294 34.5117 13.2991C34.742 13.1688 35.0021 13.1002 35.2667 13.1002H35.2759C35.5429 13.1023 35.8048 13.1742 36.0356 13.3087C36.2663 13.4431 36.4579 13.6356 36.5915 13.8669L45.9448 29.8933L56.9189 9.31745C57.0466 9.07538 57.2369 8.87192 57.4698 8.72821C57.7028 8.58449 57.97 8.50576 58.2437 8.50019C58.5176 8.49376 58.7881 8.56165 59.0265 8.69664C59.2648 8.83163 59.4622 9.02868 59.5976 9.26686L65.2893 19.2335H92V22.3002H64.4C64.1303 22.3007 63.8653 22.2301 63.6316 22.0955C63.3979 21.9609 63.2039 21.7671 63.0691 21.5335L58.3157 13.2106L47.3555 33.7573C47.227 33.998 47.0367 34.2 46.804 34.3426C46.5714 34.4852 46.305 34.5631 46.0322 34.5684L46 34.5669Z" fill="#0C6D43"/>
</svg>
