<svg width="63" height="63" viewBox="0 0 63 63" fill="none" xmlns="http://www.w3.org/2000/svg">
<g clip-path="url(#clip0)">
<path d="M60.1051 31.5022L62.869 24.2931C63.1722 23.4978 62.936 22.5962 62.2706 22.0568L56.2781 17.1982L55.0654 9.5718C54.9316 8.72923 54.2701 8.07172 53.4275 7.93785L45.8011 6.72518L40.9465 0.728782C40.4111 0.0633898 39.4897 -0.172844 38.7141 0.130323L31.5011 2.8982L24.292 0.13426C23.4928 -0.172844 22.599 0.0712643 22.0596 0.732719L17.2011 6.72912L9.57466 7.94179C8.73603 8.07565 8.07457 8.73711 7.94071 9.57574L6.72804 17.2022L0.731637 22.0607C0.070182 22.5962 -0.169989 23.4978 0.133178 24.2931L2.89711 31.5022L0.133178 38.7113C-0.173926 39.5066 0.070182 40.4082 0.731637 40.9437L6.72804 45.7983L7.94071 53.4247C8.07457 54.2673 8.73209 54.9287 9.57466 55.0626L17.2011 56.2752L22.0596 62.2677C22.599 62.937 23.5006 63.1733 24.296 62.8662L31.5011 60.1062L38.7102 62.8701C38.9385 62.9567 39.1748 63 39.4149 63C39.9937 63 40.5646 62.7441 40.9465 62.2677L45.8011 56.2752L53.4275 55.0626C54.2701 54.9287 54.9316 54.2673 55.0654 53.4247L56.2781 45.7983L62.2706 40.9437C62.936 40.4043 63.1722 39.5066 62.869 38.7113L60.1051 31.5022Z" fill="#63AD8D"/>
<path d="M25.5947 27.5658C22.3386 27.5658 19.6888 24.9161 19.6888 21.66C19.6888 18.4039 22.3386 15.7542 25.5947 15.7542C28.8507 15.7542 31.5005 18.4039 31.5005 21.66C31.5005 24.9161 28.8507 27.5658 25.5947 27.5658ZM25.5947 19.6914C24.508 19.6914 23.626 20.5733 23.626 21.66C23.626 22.7467 24.508 23.6286 25.5947 23.6286C26.6813 23.6286 27.5633 22.7467 27.5633 21.66C27.5633 20.5733 26.6813 19.6914 25.5947 19.6914Z" fill="#FAFAFA"/>
<path d="M37.4065 47.2511C34.1505 47.2511 31.5007 44.6013 31.5007 41.3452C31.5007 38.0891 34.1505 35.4394 37.4065 35.4394C40.6626 35.4394 43.3124 38.0891 43.3124 41.3452C43.3124 44.6013 40.6626 47.2511 37.4065 47.2511ZM37.4065 39.3766C36.3238 39.3766 35.4379 40.2625 35.4379 41.3452C35.4379 42.428 36.3238 43.3139 37.4065 43.3139C38.4893 43.3139 39.3752 42.428 39.3752 41.3452C39.3752 40.2625 38.4893 39.3766 37.4065 39.3766Z" fill="#FAFAFA"/>
<path d="M21.658 47.2511C21.2603 47.2511 20.8627 47.1329 20.5162 46.8849C19.6303 46.251 19.4256 45.0226 20.0595 44.1367L39.7456 16.5761C40.3795 15.6902 41.6079 15.4855 42.4938 16.1194C43.3797 16.7493 43.5805 17.9817 42.9505 18.8636L23.2644 46.4242C22.8746 46.9636 22.2722 47.2511 21.658 47.2511Z" fill="#FAFAFA"/>
</g>
<defs>
<clipPath id="clip0">
<rect width="63" height="63" fill="white"/>
</clipPath>
</defs>
</svg>