<svg width="59" height="59" viewBox="0 0 59 59" fill="none" xmlns="http://www.w3.org/2000/svg">
<path d="M45.1719 0H13.8281C6.18809 0 0 6.18809 0 13.8281V45.1719C0 52.8119 6.18809 59 13.8281 59H45.1719C52.8119 59 59 52.8119 59 45.1719V13.8281C59 6.18809 52.8119 0 45.1719 0Z" fill="#757884"/>
<path d="M4.60938 45.1719V13.8281C4.60938 8.74629 8.74629 4.60938 13.8281 4.60938V2.30469C7.47871 2.30469 2.30469 7.47871 2.30469 13.8281V45.1719C2.30469 51.5213 7.47871 56.6953 13.8281 56.6953V54.3906C8.74629 54.3906 4.60938 50.2537 4.60938 45.1719Z" fill="#4B4F5B"/>
<path d="M18.4375 23.0469C23.5289 23.0469 27.6562 18.9195 27.6562 13.8281C27.6562 8.73675 23.5289 4.60938 18.4375 4.60938C13.3461 4.60938 9.21875 8.73675 9.21875 13.8281C9.21875 18.9195 13.3461 23.0469 18.4375 23.0469Z" fill="#FF1E0A"/>
<path d="M9.21875 13.8281C9.21875 8.73477 13.3441 4.60938 18.4375 4.60938V2.30469C12.0881 2.30469 6.91406 7.47871 6.91406 13.8281C6.91406 20.1775 12.0881 25.3516 18.4375 25.3516V23.0469C13.3441 23.0469 9.21875 18.9215 9.21875 13.8281Z" fill="#31343E"/>
<path d="M9.21875 45.2986C9.21875 40.2053 13.3441 36.0799 18.4375 36.0799V33.7752C12.0881 33.7752 6.91406 38.9492 6.91406 45.2986C6.91406 51.648 12.0881 56.8221 18.4375 56.8221V54.5174C13.3441 54.5174 9.21875 50.392 9.21875 45.2986Z" fill="#31343E"/>
<path d="M18.4375 54.5174C23.5289 54.5174 27.6562 50.39 27.6562 45.2986C27.6562 40.2072 23.5289 36.0799 18.4375 36.0799C13.3461 36.0799 9.21875 40.2072 9.21875 45.2986C9.21875 50.39 13.3461 54.5174 18.4375 54.5174Z" fill="#73FF59"/>
<path d="M18.4375 4.60938V6.91406C22.2518 6.91406 25.3516 10.0139 25.3516 13.8281C25.3516 17.6424 22.2518 20.7422 18.4375 20.7422V23.0469C23.5309 23.0469 27.6562 18.9215 27.6562 13.8281C27.6562 8.73477 23.5309 4.60938 18.4375 4.60938Z" fill="#A3001E"/>
<path d="M18.4375 36.0799V38.3846C22.2518 38.3846 25.3516 41.4844 25.3516 45.2986C25.3516 49.1129 22.2518 52.2127 18.4375 52.2127V54.5174C23.5309 54.5174 27.6562 50.392 27.6562 45.2986C27.6562 40.2053 23.5309 36.0799 18.4375 36.0799Z" fill="#13C300"/>
<path d="M45.1719 0H13.8281C21.4682 0 27.6562 6.18809 27.6562 13.8281V45.1719C27.6562 52.8119 21.4682 59 13.8281 59H45.1719C52.8119 59 59 52.8119 59 45.1719V13.8281C59 6.18809 52.8119 0 45.1719 0Z" fill="#656669"/>
<path d="M13.8281 13.8281C13.8281 11.2814 15.8908 9.21875 18.4375 9.21875V6.91406C14.6232 6.91406 11.5234 10.0139 11.5234 13.8281C11.5234 17.6424 14.6232 20.7422 18.4375 20.7422V18.4375C15.8908 18.4375 13.8281 16.3748 13.8281 13.8281Z" fill="#FF9086"/>
<path d="M13.8281 45.2986C13.8281 42.7519 15.8908 40.6892 18.4375 40.6892V38.3846C14.6232 38.3846 11.5234 41.4844 11.5234 45.2986C11.5234 49.1129 14.6232 52.2127 18.4375 52.2127V49.908C15.8908 49.908 13.8281 47.8338 13.8281 45.2986Z" fill="#D4FFB7"/>
<path d="M25.3516 28.3477H4.60938V30.6523H25.3516V28.3477Z" fill="#323540"/>
<path d="M59 28.3477H27.6562V30.6523H59V28.3477Z" fill="#323540"/>
<path d="M59 26.1006H27.6562V28.4053H59V26.1006Z" fill="#81838D"/>
<path d="M25.3516 26.1006H4.60938V28.4053H25.3516V26.1006Z" fill="#81838D"/>
<path d="M25.3516 30.6523H4.60938V32.957H25.3516V30.6523Z" fill="#81838D"/>
<path d="M27.6562 45.1719V13.8281C27.6562 6.18809 21.4682 0 13.8281 0C6.18809 0 0 6.18809 0 13.8281V45.1719C0 52.8119 6.18809 59 13.8281 59C21.4682 59 27.6562 52.8119 27.6562 45.1719ZM13.8281 56.6953C7.47871 56.6953 2.30469 51.5213 2.30469 45.1719V13.8281C2.30469 7.47871 7.47871 2.30469 13.8281 2.30469C20.1775 2.30469 25.3516 7.47871 25.3516 13.8281V45.1719C25.3516 51.5213 20.1775 56.6953 13.8281 56.6953Z" fill="#76797D"/>
<path d="M29.9609 26.1006H27.6562V28.4053H29.9609V26.1006Z" fill="#52545B"/>
<path d="M31.1133 23.7959C30.4795 23.7959 29.9609 23.2773 29.9609 22.6436C29.9609 22.0098 30.4795 21.4912 31.1133 21.4912C31.7471 21.4912 32.2656 22.0098 32.2656 22.6436C32.2656 23.2889 31.7471 23.7959 31.1133 23.7959Z" fill="#31343E"/>
<path d="M31.1133 37.5664C30.4795 37.5664 29.9609 37.0479 29.9609 36.4141C29.9609 35.7803 30.4795 35.2617 31.1133 35.2617C31.7471 35.2617 32.2656 35.7803 32.2656 36.4141C32.2656 37.0479 31.7471 37.5664 31.1133 37.5664Z" fill="#31343E"/>
<path d="M55.543 23.7959C54.9092 23.7959 54.3906 23.2773 54.3906 22.6436C54.3906 22.0098 54.9092 21.4912 55.543 21.4912C56.1768 21.4912 56.6953 22.0098 56.6953 22.6436C56.6953 23.2889 56.1768 23.7959 55.543 23.7959Z" fill="#31343E"/>
<path d="M55.543 37.5664C54.9092 37.5664 54.3906 37.0479 54.3906 36.4141C54.3906 35.7803 54.9092 35.2617 55.543 35.2617C56.1768 35.2617 56.6953 35.7803 56.6953 36.4141C56.6953 37.0479 56.1768 37.5664 55.543 37.5664Z" fill="#31343E"/>
<path d="M59 30.6523H27.6562V32.957H59V30.6523Z" fill="#3F4148"/>
<path d="M29.9609 30.6523H27.6562V32.957H29.9609V30.6523Z" fill="#52545B"/>
<path d="M6.91406 26.1006H4.60938V28.4053H6.91406V26.1006Z" fill="#52545B"/>
<path d="M6.91406 30.6523H4.60938V32.957H6.91406V30.6523Z" fill="#52545B"/>
<path d="M13.8281 59H45.1719C52.8119 59 59 52.8119 59 45.1719H27.6562C27.6562 52.8119 21.4682 59 13.8281 59Z" fill="#52555E"/>
<path d="M13.8281 0H45.1719C52.8119 0 59 6.18809 59 13.8281H27.6562C27.6562 6.18809 21.4682 0 13.8281 0Z" fill="#555863"/>
<path d="M24.1301 4.60938H55.4738C52.9387 1.78613 49.2627 0 45.1719 0H13.8281C17.9189 0 21.6064 1.78613 24.1301 4.60938Z" fill="#A4A6AA"/>
</svg>
