<svg width="70" height="70" viewBox="0 0 70 70" fill="none" xmlns="http://www.w3.org/2000/svg">
<g clip-path="url(#clip0)">
<path d="M68.2203 70V50.2529C68.2216 48.4566 67.5429 46.7255 66.322 45.4086L57.7726 35.967C56.872 34.9728 55.5931 34.4056 54.2512 34.4067H48.0509V70H68.2203Z" fill="#FEC9A3"/>
<path d="M57.5423 54.5761L48.0509 45.0847V69.9999H57.5423V54.5761Z" fill="#F7B483"/>
<path d="M49.2373 9.49158H25.5084C22.8875 9.49158 20.7626 11.6165 20.7626 14.2374V64.0678C20.7626 66.6887 22.8875 68.8136 25.5084 68.8136H49.2372C51.8581 68.8136 53.983 66.6887 53.983 64.0678V14.2374C53.983 11.6165 51.8581 9.49158 49.2373 9.49158Z" fill="#353333"/>
<path d="M53.983 16.6102H20.7626V61.695H53.983V16.6102Z" fill="#D5D5D5"/>
<path d="M20.7626 53.3898V61.6949H53.983V20.1694L20.7626 53.3898Z" fill="#B9B9B9"/>
<path d="M5.339 0H36.1864C38.1523 0 39.7458 1.59346 39.7458 3.55934V20.1696C39.7458 22.1354 38.1525 23.7289 36.1864 23.7289H5.339C3.37312 23.7289 1.77966 22.1354 1.77966 20.1696V3.55934C1.77966 1.59346 3.37298 0 5.339 0Z" fill="#87CED9"/>
<path d="M36.1864 0H31.7373L8.00842 23.7288H36.1864C38.1523 23.7288 39.7458 22.1353 39.7458 20.1694V3.55934C39.7458 1.59346 38.1523 0 36.1864 0Z" fill="#7DC6D1"/>
<path d="M29.0678 17.7967C30.3783 17.7967 31.4407 16.7343 31.4407 15.4238C31.4407 14.1133 30.3783 13.0509 29.0678 13.0509C27.7573 13.0509 26.6949 14.1133 26.6949 15.4238C26.6949 16.7343 27.7573 17.7967 29.0678 17.7967Z" fill="#E8594A"/>
<path d="M26.6949 4.74573H5.33899V7.11862H26.6949V4.74573Z" fill="#61ACC9"/>
<path d="M7.71188 11.8644H5.33899V14.2373H7.71188V11.8644Z" fill="#61ACC9"/>
<path d="M12.4577 11.8644H10.0848V14.2373H12.4577V11.8644Z" fill="#61ACC9"/>
<path d="M17.2035 11.8644H14.8306V14.2373H17.2035V11.8644Z" fill="#61ACC9"/>
<path d="M21.9491 11.8644H19.5762V14.2373H21.9491V11.8644Z" fill="#61ACC9"/>
<path d="M21.9492 16.6102H5.33899V18.9831H21.9492V16.6102Z" fill="#61ACC9"/>
<path d="M32.6271 17.7967C33.9376 17.7967 35 16.7343 35 15.4238C35 14.1133 33.9376 13.0509 32.6271 13.0509C31.3166 13.0509 30.2542 14.1133 30.2542 15.4238C30.2542 16.7343 31.3166 17.7967 32.6271 17.7967Z" fill="#FDB62F"/>
<path d="M46.8644 30.8474C46.3199 30.8474 45.8453 31.2187 45.7135 31.7467L44.7525 35.5932H26.6949C26.04 35.5932 25.5084 36.1248 25.5084 36.7796C25.5084 36.8758 25.5203 36.9731 25.544 37.0668L27.9169 46.5583C28.0485 47.0863 28.5231 47.4577 29.0678 47.4577H43.3051C43.96 47.4577 44.4915 47.9892 44.4915 48.6441C44.4915 49.299 43.96 49.8305 43.3051 49.8305H27.8813V52.2034H43.3051C45.271 52.1963 46.8586 50.597 46.8513 48.6311C46.8465 47.2323 46.0232 45.9676 44.7465 45.3957L46.8287 37.0669L47.791 33.2204H49.2372V30.8475H46.8644V30.8474ZM43.5649 40.339H40.4968L40.7933 37.9661H44.1581L43.5649 40.339ZM34.268 40.339L33.9714 37.9661H38.4017L38.1051 40.339H34.268ZM37.8083 42.7119L37.5118 45.0848H34.8612L34.5647 42.7119H37.8083ZM31.5794 37.9661L31.876 40.339H28.808L28.2148 37.9661H31.5794ZM29.4012 42.7119H32.1728L32.4693 45.0848H29.9944L29.4012 42.7119ZM39.9035 45.0848L40.2001 42.7119H42.9716L42.3784 45.0848H39.9035Z" fill="#DB4A3B"/>
<path d="M30.2542 58.1356C31.5647 58.1356 32.6271 57.0732 32.6271 55.7627C32.6271 54.4522 31.5647 53.3898 30.2542 53.3898C28.9437 53.3898 27.8813 54.4522 27.8813 55.7627C27.8813 57.0732 28.9437 58.1356 30.2542 58.1356Z" fill="#DB4A3B"/>
<path d="M42.1186 58.1356C43.4292 58.1356 44.4915 57.0732 44.4915 55.7627C44.4915 54.4522 43.4292 53.3898 42.1186 53.3898C40.8081 53.3898 39.7458 54.4522 39.7458 55.7627C39.7458 57.0732 40.8081 58.1356 42.1186 58.1356Z" fill="#DB4A3B"/>
<path d="M36.1865 33.2203C36.4213 33.2203 36.6503 33.1515 36.8449 33.021L40.4042 30.6481L39.0872 28.6739L37.3728 29.8164V27.2881H35V29.8164L33.2856 28.6739L31.9685 30.6481L35.5279 33.021C35.7226 33.1515 35.9516 33.2203 36.1865 33.2203Z" fill="#0C6D43"/>
<path d="M61.1017 55.7627L49.2527 42.9266C47.9855 41.5539 45.8464 41.4672 44.4724 42.7343C44.438 42.7652 44.4047 42.7972 44.3728 42.8304C43.1056 44.0975 43.0463 46.1311 44.2363 47.4707L51.6101 55.7627C50.1792 60.0565 51.5246 64.7879 55.0021 67.6852L57.5423 70H61.1017V55.7627Z" fill="#FEC9A3"/>
<path d="M59.9152 54.5762C59.6007 54.5762 59.2982 54.4516 59.0764 54.2285L53.1442 48.2963C52.6887 47.8253 52.7016 47.0743 53.1726 46.6186C53.633 46.1748 54.3614 46.1748 54.8217 46.6186L60.754 52.5508C61.2166 53.0147 61.2166 53.7657 60.754 54.2285C60.531 54.4516 60.2296 54.5762 59.9152 54.5762Z" fill="#F7B483"/>
</g>
<defs>
<clipPath id="clip0">
<rect width="70" height="70" fill="white"/>
</clipPath>
</defs>
</svg>