<svg width="66" height="66" viewBox="0 0 66 66" fill="none" xmlns="http://www.w3.org/2000/svg">
<path d="M41.9048 57.9191L33 62.9062L24.0952 57.9191C18.9769 55.053 14.7152 50.8744 11.7489 45.8136C8.78254 40.7527 7.21882 34.9927 7.21875 29.1266V11.3438C15.9604 11.3439 24.5065 8.75638 31.78 3.90741L33 3.09375L34.22 3.90741C41.4935 8.75638 50.0396 11.3439 58.7812 11.3438V29.1266C58.7812 34.9927 57.2175 40.7527 54.2511 45.8136C51.2848 50.8744 47.0231 55.053 41.9048 57.9191Z" fill="#A0C1BF"/>
<path d="M48.2356 10.0619C42.9937 34.3767 28.0231 46.7971 17.2032 52.769C19.2657 54.7794 21.5827 56.5109 24.0951 57.9191L32.9999 62.9062L41.9047 57.9191C47.023 55.053 51.2847 50.8743 54.251 45.8135C57.2174 40.7527 58.7811 34.9927 58.7812 29.1266V11.3437C55.2272 11.3415 51.6865 10.9111 48.2356 10.0619Z" fill="#76A3A1"/>
<path d="M26.1092 54.3201C21.6329 51.8098 17.9058 48.1529 15.3108 43.7252C12.7158 39.2975 11.3466 34.2587 11.3438 29.1266V15.2945C19.0402 14.6435 26.4674 12.1525 33 8.03137C39.5325 12.1527 46.9598 14.6437 54.6562 15.2945V29.1266C54.6534 34.2587 53.2842 39.2975 50.6892 43.7252C48.0942 48.1529 44.3671 51.8098 39.8908 54.3201L33 58.179L26.1092 54.3201Z" fill="white"/>
<path d="M26.1092 54.3201C21.6329 51.8098 17.9058 48.1529 15.3108 43.7252C12.7158 39.2975 11.3466 34.2587 11.3438 29.1266V15.2945C19.0402 14.6435 26.4674 12.1525 33 8.03137C39.5325 12.1527 46.9598 14.6437 54.6562 15.2945V29.1266C54.6534 34.2587 53.2842 39.2975 50.6892 43.7252C48.0942 48.1529 44.3671 51.8098 39.8908 54.3201L33 58.179L26.1092 54.3201Z" fill="#8CD1D5"/>
<path d="M34.0312 12.375H31.9688V14.4375H34.0312V12.375Z" fill="#447A77"/>
<path d="M34.0312 51.5625H31.9688V53.625H34.0312V51.5625Z" fill="#447A77"/>
<path d="M16.5 17.5312H14.4375V19.5938H16.5V17.5312Z" fill="#447A77"/>
<path d="M51.5625 17.5312H49.5V19.5938H51.5625V17.5312Z" fill="#447A77"/>
<path d="M16.5 29.9062H14.4375V31.9688H16.5V29.9062Z" fill="#447A77"/>
<path d="M51.5625 29.9062H49.5V31.9688H51.5625V29.9062Z" fill="#447A77"/>
<path d="M20.625 42.2812H18.5625V44.3438H20.625V42.2812Z" fill="#447A77"/>
<path d="M47.4375 42.2812H45.375V44.3438H47.4375V42.2812Z" fill="#447A77"/>
<path d="M33 8.03137C26.4674 12.1525 19.0402 14.6435 11.3438 15.2945V17.9592C19.0402 17.3083 26.4674 14.8173 33 10.6961C39.5325 14.8174 46.9598 17.3084 54.6562 17.9592V15.2945C46.9598 14.6437 39.5325 12.1527 33 8.03137Z" fill="#447A77"/>
</svg>